<svg width="48" height="48" viewBox="0 0 48 48" fill="none" xmlns="http://www.w3.org/2000/svg">
<rect width="48" height="48" rx="24" fill="#0196DD"/>
<path d="M24 12C17.4 12 12 17.4096 12 24.0723C12 30.0964 16.392 35.0964 22.128 36V27.5663H19.08V24.0723H22.128V21.4096C22.128 18.3855 23.916 16.7229 26.664 16.7229C27.972 16.7229 29.34 16.9518 29.34 16.9518V19.9277H27.828C26.34 19.9277 25.872 20.8554 25.872 21.8072V24.0723H29.208L28.668 27.5663H25.872V36C28.6997 35.5516 31.2746 34.103 33.1319 31.9157C34.9892 29.7284 36.0064 26.9466 36 24.0723C36 17.4096 30.6 12 24 12Z" fill="white"/>
</svg>
