<svg width="48" height="48" viewBox="0 0 48 48" fill="none" xmlns="http://www.w3.org/2000/svg">
<rect width="48" height="48" rx="24" fill="#0196DD"/>
<path d="M33.3333 12C34.0406 12 34.7189 12.281 35.219 12.781C35.719 13.2811 36 13.9594 36 14.6667V33.3333C36 34.0406 35.719 34.7189 35.219 35.219C34.7189 35.719 34.0406 36 33.3333 36H14.6667C13.9594 36 13.2811 35.719 12.781 35.219C12.281 34.7189 12 34.0406 12 33.3333V14.6667C12 13.9594 12.281 13.2811 12.781 12.781C13.2811 12.281 13.9594 12 14.6667 12H33.3333ZM32.6667 32.6667V25.6C32.6667 24.4472 32.2087 23.3416 31.3936 22.5264C30.5784 21.7113 29.4728 21.2533 28.32 21.2533C27.1867 21.2533 25.8667 21.9467 25.2267 22.9867V21.5067H21.5067V32.6667H25.2267V26.0933C25.2267 25.0667 26.0533 24.2267 27.08 24.2267C27.5751 24.2267 28.0499 24.4233 28.3999 24.7734C28.75 25.1235 28.9467 25.5983 28.9467 26.0933V32.6667H32.6667ZM17.1733 19.4133C17.7674 19.4133 18.3372 19.1773 18.7573 18.7573C19.1773 18.3372 19.4133 17.7674 19.4133 17.1733C19.4133 15.9333 18.4133 14.92 17.1733 14.92C16.5757 14.92 16.0026 15.1574 15.58 15.58C15.1574 16.0026 14.92 16.5757 14.92 17.1733C14.92 18.4133 15.9333 19.4133 17.1733 19.4133ZM19.0267 32.6667V21.5067H15.3333V32.6667H19.0267Z" fill="white"/>
</svg>
