<svg width="48" height="48" viewBox="0 0 48 48" fill="none" xmlns="http://www.w3.org/2000/svg">
<rect width="48" height="48" rx="24" fill="#0196DD"/>
<path d="M37 16.2945C36.1166 16.696 35.1644 16.9598 34.1778 17.086C35.1874 16.478 35.9675 15.5143 36.3346 14.3556C35.3824 14.9293 34.327 15.3308 33.2141 15.5602C32.3078 14.5736 31.0344 14 29.5889 14C26.8929 14 24.6902 16.2027 24.6902 18.9216C24.6902 19.3117 24.7361 19.6902 24.8164 20.0459C20.7323 19.8394 17.0956 17.8776 14.675 14.9063C14.2505 15.6291 14.0096 16.478 14.0096 17.3728C14.0096 19.0822 14.87 20.5966 16.2008 21.457C15.3862 21.457 14.6291 21.2275 13.9637 20.8834C13.9637 20.8834 13.9637 20.8834 13.9637 20.9178C13.9637 23.304 15.6616 25.3002 17.9101 25.7476C17.4971 25.8623 17.0612 25.9197 16.6138 25.9197C16.304 25.9197 15.9943 25.8853 15.696 25.8279C16.3155 27.7667 18.1166 29.2122 20.2849 29.2467C18.6099 30.5774 16.4876 31.3576 14.1702 31.3576C13.7801 31.3576 13.3901 31.3346 13 31.2887C15.1797 32.6883 17.7725 33.5029 20.5488 33.5029C29.5889 33.5029 34.5564 26 34.5564 19.4952C34.5564 19.2772 34.5564 19.0707 34.5449 18.8528C35.5086 18.1644 36.3346 17.2925 37 16.2945Z" fill="white"/>
</svg>
