<svg width="48" height="48" viewBox="0 0 48 48" fill="none" xmlns="http://www.w3.org/2000/svg">
<rect width="48" height="48" rx="24" fill="#0196DD"/>
<path d="M21.6 28L27.828 24.4L21.6 20.8V28ZM35.472 18.604C35.628 19.168 35.736 19.924 35.808 20.884C35.892 21.844 35.928 22.672 35.928 23.392L36 24.4C36 27.028 35.808 28.96 35.472 30.196C35.172 31.276 34.476 31.972 33.396 32.272C32.832 32.428 31.8 32.536 30.216 32.608C28.656 32.692 27.228 32.728 25.908 32.728L24 32.8C18.972 32.8 15.84 32.608 14.604 32.272C13.524 31.972 12.828 31.276 12.528 30.196C12.372 29.632 12.264 28.876 12.192 27.916C12.108 26.956 12.072 26.128 12.072 25.408L12 24.4C12 21.772 12.192 19.84 12.528 18.604C12.828 17.524 13.524 16.828 14.604 16.528C15.168 16.372 16.2 16.264 17.784 16.192C19.344 16.108 20.772 16.072 22.092 16.072L24 16C29.028 16 32.16 16.192 33.396 16.528C34.476 16.828 35.172 17.524 35.472 18.604Z" fill="white"/>
</svg>
